<mxfile host="app.diagrams.net" modified="2024-04-16T09:40:43.409Z" agent="Mozilla/5.0 (Windows NT 10.0; Win64; x64) AppleWebKit/537.36 (KHTML, like Gecko) Chrome/123.0.0.0 Safari/537.36" etag="BXRXnGea8NFld51Vdaz6" version="24.2.5" type="github">
  <diagram name="Page-1" id="74e2e168-ea6b-b213-b513-2b3c1d86103e">
    <mxGraphModel dx="1195" dy="622" grid="1" gridSize="10" guides="1" tooltips="1" connect="1" arrows="1" fold="1" page="1" pageScale="1" pageWidth="1100" pageHeight="850" background="none" math="0" shadow="0">
      <root>
        <mxCell id="0" />
        <mxCell id="1" parent="0" />
        <mxCell id="wo6MZwKGtaVw_RgCl_rl-2" style="edgeStyle=orthogonalEdgeStyle;rounded=0;orthogonalLoop=1;jettySize=auto;html=1;exitX=1;exitY=0.5;exitDx=0;exitDy=0;strokeColor=#DDA15E;fontColor=default;fillColor=#BC6C25;labelBackgroundColor=none;" edge="1" parent="1" source="wo6MZwKGtaVw_RgCl_rl-1">
          <mxGeometry relative="1" as="geometry">
            <mxPoint x="400" y="209.66666666666674" as="targetPoint" />
          </mxGeometry>
        </mxCell>
        <mxCell id="wo6MZwKGtaVw_RgCl_rl-1" value="开始节点" style="rounded=1;whiteSpace=wrap;html=1;strokeColor=#DDA15E;fontColor=#FEFAE0;fillColor=#BC6C25;labelBackgroundColor=none;" vertex="1" parent="1">
          <mxGeometry x="150" y="180" width="120" height="60" as="geometry" />
        </mxCell>
      </root>
    </mxGraphModel>
  </diagram>
</mxfile>
